HIERARCHY
ROOT hip
{
	OFFSET 0.000000 0.000000 0.000000 
	CHANNELS 6 Xposition Yposition Zposition Xrotation Zrotation Yrotation
	JOINT abdomen
	{
		OFFSET 0.000000 3.402643 0.000000 
		CHANNELS 3 Xrotation Zrotation Yrotation
		JOINT chest
		{
			OFFSET 0.000000 8.438565 -0.680529 
			CHANNELS 3 Xrotation Zrotation Yrotation
			JOINT neck
			{
				OFFSET 0.000000 10.207942 -0.272212 
				CHANNELS 3 Xrotation Zrotation Yrotation
				JOINT head
				{
					OFFSET 0.000000 3.130431 0.000000 
					CHANNELS 3 Xrotation Zrotation Yrotation
					End Site
					{
						OFFSET 0.000000 3.130435 0.000000 
					}
				}
			}
			JOINT lCollar
			{
				OFFSET 3.470700 6.669187 -0.816635 
				CHANNELS 3 Yrotation Zrotation Xrotation
				JOINT lShldr
				{
					OFFSET 3.198488 0.000000 0.000000 
					CHANNELS 3 Zrotation Yrotation Xrotation
					JOINT lForeArm
					{
						OFFSET 10.139888 0.000000 0.000000 
						CHANNELS 3 Yrotation Zrotation Xrotation
						JOINT lHand
						{
							OFFSET 8.370511 0.000000 0.000000 
							CHANNELS 3 Zrotation Yrotation Xrotation
							End Site
							{
								OFFSET 4.083176 0.000000 0.000000 
							}
						}
					}
				}
			}
			JOINT rCollar
			{
				OFFSET -3.470700 6.669187 -0.816635 
				CHANNELS 3 Yrotation Zrotation Xrotation
				JOINT rShldr
				{
					OFFSET -3.198488 0.000000 0.000000 
					CHANNELS 3 Zrotation Yrotation Xrotation
					JOINT rForeArm
					{
						OFFSET -10.139888 0.000000 0.000000 
						CHANNELS 3 Yrotation Zrotation Xrotation
						JOINT rHand
						{
							OFFSET -8.370511 0.000000 0.000000 
							CHANNELS 3 Zrotation Yrotation Xrotation
							End Site
							{
								OFFSET -4.083176 0.000000 0.000000 
							}
						}
					}
				}
			}
		}
	}
	JOINT lThigh
	{
		OFFSET 5.308129 -1.633274 1.361059 
		CHANNELS 3 Xrotation Zrotation Yrotation
		JOINT lShin
		{
			OFFSET -2.041588 -20.007561 0.000000 
			CHANNELS 3 Xrotation Zrotation Yrotation
			JOINT lFoot
			{
				OFFSET 0.000000 -19.190928 -1.224953 
				CHANNELS 3 Xrotation Yrotation Zrotation
				End Site
				{
					OFFSET 0.000000 -2.449906 4.627600 
				}
			}
		}
	}
	JOINT rThigh
	{
		OFFSET -5.308129 -1.633274 1.361059 
		CHANNELS 3 Xrotation Zrotation Yrotation
		JOINT rShin
		{
			OFFSET 2.041588 -20.007561 0.000000 
			CHANNELS 3 Xrotation Zrotation Yrotation
			JOINT rFoot
			{
				OFFSET 0.000000 -19.190928 -1.224953 
				CHANNELS 3 Xrotation Yrotation Zrotation
				End Site
				{
					OFFSET 0.000000 -2.449906 4.627600 
				}
			}
		}
	}
}
MOTION
Frames: 18
Frame Time: 0.016667
-24.889677 56.409885 126.708923 -10.596557 -6.306440 -1.503333 32.867626 4.607742 -2.042620 0.055995 4.008695 -7.550934 -13.724650 1.282174 -0.272970 6.934426 -4.156295 7.225490 -4.604278 -3.659758 -0.186710 -65.103569 -5.476302 0.592827 -115.221046 -5.000000 -4.251844 -25.347395 -10.889929 13.714298 9.119967 9.286915 -0.481916 67.674782 -11.107872 -24.006546 24.202955 5.000000 25.802113 12.218869 -2.218480 -15.023126 21.234365 7.243576 -6.064364 27.638941 -7.040939 -4.176388 -10.645761 8.046997 -3.702555 -4.815213 1.520366 0.800245 50.858368 1.287779 1.603430 7.269793 -15.423879 5.943082 
-25.315092 56.799713 130.010025 -11.142240 -4.550770 -0.128103 31.670023 3.202267 -4.068899 -0.236353 4.535217 -9.257152 -13.193615 2.077737 -0.433090 7.863830 -4.804212 8.192436 -4.433639 -1.777509 -0.089530 -66.360474 -5.397261 0.857596 -117.251358 -5.000000 -4.903301 -25.339605 -9.888165 14.160206 8.340813 8.340941 -0.432957 69.333244 -15.057940 -29.665377 22.728121 5.000000 30.974197 12.393515 -2.011693 -15.742766 25.367971 6.727465 -6.025823 24.650185 -6.527230 -3.444428 -0.538339 6.341173 -5.883930 -4.689843 -0.653759 1.049441 42.965969 2.167999 1.891144 7.500899 -15.433887 6.397951 
-25.681465 57.033440 133.275375 -11.439866 -2.255733 0.605768 30.531294 1.034356 -5.952043 -0.595456 4.954670 -10.464394 -12.771420 2.787844 -0.570089 8.548683 -5.431265 8.965798 -4.207603 -0.002534 0.002204 -67.304268 -5.832304 1.837775 -118.701408 -5.000000 -5.325541 -25.510441 -8.721154 14.526900 7.530192 7.123175 -0.358877 70.366455 -19.059818 -33.686928 21.661243 5.000000 35.736115 12.197894 -2.107076 -16.496767 28.501108 5.389272 -6.337505 22.425848 -5.634670 -2.668161 12.347348 4.479740 -8.745164 -4.538647 -3.611598 2.828153 34.944630 4.104811 2.816384 9.731351 -15.840023 8.058502 
-26.047827 57.267159 136.540649 -11.717838 0.039052 1.337897 29.448019 -1.171037 -7.775598 -0.965211 5.362030 -11.673627 -12.350836 3.509050 -0.699383 9.226583 -6.064634 9.722706 -3.974344 1.773119 0.083898 -68.272942 -6.244498 2.832864 -120.161919 -5.000000 -5.755506 -25.675840 -7.551075 14.907355 6.733149 5.902839 -0.304253 71.729782 -22.969965 -37.896210 20.387337 5.000000 40.588669 12.016631 -2.203041 -17.259933 31.631596 4.080107 -6.709831 20.203217 -4.730875 -1.946099 25.084574 1.768898 -11.010879 -4.488647 -6.587484 4.624129 26.951677 6.166756 3.475507 11.989125 -16.226498 9.753885 
-26.425180 57.142658 139.649933 -11.818435 1.385929 1.934209 28.780197 -2.464963 -8.660456 -1.311867 5.451824 -12.400323 -12.162151 3.971021 -0.779734 9.339855 -6.242157 10.010497 -4.280693 3.431112 0.169824 -68.607979 -7.524887 4.275878 -121.256256 -5.000000 -5.776610 -25.067127 -6.726410 14.795200 5.964973 4.733554 -0.233139 72.187988 -26.567793 -39.979156 20.004894 5.000000 43.599331 12.851640 -2.377520 -19.317831 32.606903 3.593275 -9.164911 21.365604 -5.167364 -2.240895 26.519112 1.117489 -10.662565 -4.334245 -8.210588 6.057826 19.631554 6.683470 2.715909 14.469264 -15.295999 12.088850 
-26.802534 57.018120 142.759186 -11.900259 2.731688 2.542226 28.123911 -3.769852 -9.518858 -1.659307 5.541041 -13.116385 -11.963686 4.434449 -0.850554 9.439784 -6.428812 10.299443 -4.589542 5.089097 0.255308 -68.982094 -8.792217 5.738092 -122.350136 -5.000000 -5.789871 -24.463232 -5.906953 14.684763 5.209427 3.562232 -0.182286 72.812019 -30.152346 -42.158855 19.472660 5.000000 45.000000 13.707426 -2.488725 -21.367725 33.600906 3.143368 -11.594475 22.518682 -5.597641 -2.562465 27.933744 0.503842 -10.288576 -4.223175 -9.834900 7.491844 12.293736 7.115677 1.882245 16.913963 -14.292750 14.351365 
-27.176300 56.746277 145.790222 -12.007112 3.939214 3.191495 27.792522 -4.938172 -10.222762 -1.888836 5.669497 -13.726411 -11.969708 4.721151 -0.913609 9.169567 -6.675087 10.472133 -4.848173 6.054636 0.306028 -68.518982 -10.501132 7.229402 -123.178162 -5.000000 -5.548956 -24.271585 -5.706241 14.688928 4.572776 2.918563 -0.148958 72.967560 -33.283268 -43.804512 19.243523 5.000000 45.000000 15.283460 -2.713577 -22.360762 33.875355 2.851149 -12.764021 24.690035 -5.845124 -2.962770 28.285110 0.645736 -10.691800 -4.166095 -11.057619 7.188562 6.854052 6.890306 1.190831 18.132883 -12.691520 16.136312 
-27.547684 56.376198 148.769165 -12.119743 5.047104 3.872512 27.664360 -5.993851 -10.814796 -2.031404 5.827193 -14.258680 -12.111730 4.890522 -0.969572 8.625485 -6.960974 10.576011 -5.085262 6.542300 0.331177 -67.511642 -12.518212 8.709879 -123.838066 -5.000000 -5.131289 -24.345968 -5.948339 14.749548 4.015357 2.606480 -0.132792 72.781830 -36.113480 -45.000000 19.289259 5.000000 45.000000 17.332497 -3.011099 -22.659218 33.651169 2.646039 -13.064477 27.576164 -5.959404 -3.450027 27.919029 1.238834 -11.607830 -4.067833 -12.002481 5.733770 2.666611 6.287099 0.632046 18.549278 -10.780850 17.652502 
-27.929131 55.949490 151.736237 -12.268069 6.094019 4.567137 27.608603 -7.036081 -11.356065 -2.120821 5.965576 -14.751119 -12.215640 5.098506 -1.030545 8.125584 -7.209876 10.611064 -5.342496 6.902276 0.360600 -66.336884 -14.687322 10.137718 -124.373497 -5.000000 -4.666122 -24.326614 -6.211989 14.602231 3.507490 2.401078 -0.131920 72.657356 -38.712631 -45.000000 19.124029 5.000000 45.000000 19.385925 -3.183905 -22.681627 33.318661 2.489750 -12.831258 30.737665 -5.783588 -3.763905 27.071150 1.846687 -12.380055 -4.002089 -12.867465 4.278249 -0.809475 5.810482 0.194783 19.465725 -9.211542 19.188322 
-28.350832 55.296326 154.655869 -12.649742 6.913827 5.312568 27.825363 -8.052656 -11.744428 -1.967011 6.019516 -15.026457 -12.107300 5.472073 -1.107593 7.794979 -7.301323 10.396750 -5.683142 6.716979 0.349884 -64.304848 -17.435099 11.388213 -124.409325 -5.000000 -4.094478 -23.971420 -6.546819 13.646012 3.185649 2.576680 -0.141017 72.524170 -40.337231 -45.000000 18.212957 5.000000 45.000000 21.489168 -3.019277 -21.618675 32.442558 2.654112 -10.505695 35.139919 -4.611667 -3.437883 24.509792 2.060027 -12.806175 -4.020442 -13.322464 2.766463 -1.647774 5.845098 0.109417 22.334131 -9.121444 20.835651 
-28.772533 54.643131 157.575500 -13.018543 7.740221 6.061419 28.053305 -9.049771 -12.130873 -1.814644 6.073116 -15.311506 -12.010353 5.844151 -1.194300 7.455279 -7.392787 10.182470 -6.023761 6.521930 0.339836 -62.306507 -20.212721 12.555976 -124.465279 -5.000000 -3.532974 -23.603106 -6.869968 12.694064 2.854070 2.752283 -0.150113 72.422226 -41.965652 -45.000000 17.328018 5.000000 45.000000 23.596321 -2.911915 -20.567986 31.588051 2.831036 -8.160507 39.553448 -3.459632 -3.020752 21.955959 2.363433 -13.185727 -4.011750 -13.774249 1.272348 -2.485542 5.861172 0.004718 25.247311 -8.930708 22.484314 
-29.264677 53.839954 160.429565 -13.832908 7.032056 6.711452 28.489077 -8.512343 -11.803413 -1.632345 6.244121 -15.530993 -11.828663 5.654023 -1.145890 7.338246 -7.472176 10.075971 -5.713521 5.294089 0.266772 -59.598885 -23.505541 13.519364 -123.665428 -5.000000 -2.909739 -23.235867 -7.695133 12.781915 2.601212 3.122924 -0.169306 71.808159 -42.378639 -45.000000 15.857980 5.000000 45.000000 25.067200 -4.079109 -18.457644 30.326033 4.539343 -5.640017 44.807720 -2.473576 -2.470149 18.148397 3.247640 -12.774555 -3.953880 -12.535445 -0.344187 1.796556 6.712125 0.588297 23.039557 -7.518652 18.621849 
-29.774426 52.999271 163.267166 -14.769471 5.966624 7.345094 28.983606 -7.590843 -11.292422 -1.454514 6.454015 -15.739937 -11.614431 5.330206 -1.066471 7.279218 -7.541520 9.988852 -5.238874 3.801871 0.188960 -56.690170 -26.975456 14.300426 -122.669785 -5.000000 -2.301872 -22.874989 -8.636972 13.136396 2.368172 3.542324 -0.191015 71.068268 -42.476521 -45.000000 14.269818 5.000000 45.000000 26.318893 -5.652436 -16.125408 29.062975 6.647902 -3.115174 50.272175 -1.546130 -1.819526 14.073064 4.200275 -12.120039 -3.934139 -10.864692 -1.932639 7.420994 7.733284 1.392604 19.834854 -5.812616 13.324313 
-30.306696 52.296257 165.961716 -15.581180 4.413853 7.630571 29.327648 -6.428785 -10.478672 -1.408916 6.772178 -15.717761 -11.114276 4.962512 -0.950940 7.287345 -7.580896 9.950133 -5.069032 2.133288 0.112579 -54.389301 -29.436359 14.761905 -121.399971 -4.700693 -1.813025 -23.412495 -9.291389 14.589180 2.449779 4.644766 -0.238282 69.714111 -42.229893 -45.000000 12.694762 5.000000 45.000000 27.155743 -7.466743 -13.860619 27.259081 8.913610 -0.739397 55.416538 -0.784420 -1.018102 10.440847 5.598321 -11.432936 -4.120052 -8.659223 -2.309091 13.862353 9.039731 2.802575 14.999224 -6.239492 8.438518 
-30.872746 51.799786 168.441666 -16.168222 2.140350 7.378451 29.445353 -4.876099 -9.231891 -1.570542 7.276777 -15.384820 -10.180766 4.534546 -0.776306 7.371337 -7.580217 9.980454 -5.340433 0.192519 0.012253 -53.043293 -30.346069 14.959858 -119.688438 -4.377545 -1.482189 -25.351337 -9.377615 17.703657 3.016182 6.751816 -0.338447 67.478462 -41.443909 -45.000000 11.091815 5.000000 45.000000 27.411451 -9.553247 -11.640427 24.593904 11.452520 1.368129 60.058193 -0.227615 -0.107385 7.443043 7.537605 -10.881444 -4.468832 -5.678593 -0.798709 21.629854 9.989637 5.120117 7.254733 -9.255968 3.989230 
-31.438805 51.303326 170.921570 -16.755297 -0.135656 7.148441 29.602587 -3.330907 -7.994211 -1.717271 7.782192 -15.052712 -9.240927 4.093951 -0.620288 7.465096 -7.579537 10.009488 -5.625277 -1.737541 -0.097229 -51.679230 -31.263681 15.116607 -117.979538 -4.037987 -1.174619 -27.358706 -9.273407 20.771313 3.580792 8.857204 -0.469354 65.278923 -40.654140 -45.000000 9.526424 5.000000 45.000000 27.558603 -11.662756 -9.426925 21.989107 14.042285 3.349269 64.729622 0.233079 0.887291 4.415211 9.514983 -10.140020 -4.734317 -2.674649 0.661958 29.474957 9.973542 7.686736 -0.787902 -11.773835 -0.886304 
-31.621635 51.442425 173.004562 -16.837547 0.872514 6.914893 30.291424 -4.406356 -8.875664 -1.622097 7.633272 -14.686845 -9.421125 5.173845 -0.794236 7.312034 -7.038430 10.115793 -5.966097 -1.054801 -0.061769 -55.797531 -28.187017 15.678638 -115.606743 -4.726393 -1.404867 -28.458565 -7.344844 23.424332 3.259995 10.115300 -0.536023 64.011238 -37.664352 -45.000000 9.562092 5.000000 45.000000 25.221485 -15.438410 -6.665713 17.265553 11.640618 1.991817 67.921272 0.387446 1.626830 0.415165 9.885187 -6.772707 -2.671059 -3.568525 2.034233 31.239302 9.984509 9.247857 -4.215351 -13.311395 -1.784156 
-31.804411 51.581596 175.087524 -16.929445 1.872005 6.673683 31.010530 -5.460694 -9.762163 -1.526815 7.484255 -14.310058 -9.595078 6.253690 -0.969297 7.162732 -6.488059 10.221827 -6.317095 -0.352553 -0.025590 -59.767941 -25.079174 15.973221 -113.233070 -5.000000 -1.581290 -29.435966 -5.338568 26.008249 2.931082 11.383134 -0.605285 62.936123 -34.655315 -44.164833 9.573095 5.000000 45.000000 22.520718 -19.004890 -3.639512 12.628286 9.126028 0.850219 71.113380 0.513335 2.362121 -3.652664 9.975262 -3.393895 -0.604140 -4.513579 3.385493 33.016964 9.984384 10.857937 -7.749901 -14.811230 -2.799077 
